<?xml version="1.0" encoding="utf-8"?>
<!-- Generator: Adobe Illustrator 24.2.3, SVG Export Plug-In . SVG Version: 6.00 Build 0)  -->
<svg version="1.1" id="Layer_1" xmlns="http://www.w3.org/2000/svg" xmlns:xlink="http://www.w3.org/1999/xlink" x="0px" y="0px"
	 viewBox="0 0 400 400" style="enable-background:new 0 0 400 400;" xml:space="preserve">
<style type="text/css">
	.st0{fill:#828282;}
</style>
<path class="st0" d="M53.8,328.93c5.28,5.28,10.8,10.38,16.58,15.1c6.74,5.5,13.66,10.85,20.9,15.65
	c11.74,7.78,24.2,14.33,37.43,19.24c7.8,2.9,15.73,5.57,23.77,7.69c6.63,1.75,13.49,2.7,20.3,3.67c6.27,0.89,12.59,1.67,18.91,1.87
	c7.46,0.23,14.94-0.06,22.4-0.42c5.34-0.26,10.74-0.62,15.97-1.64c8.25-1.61,16.41-3.72,24.56-5.8c12.5-3.19,24.29-8.29,35.68-14.22
	c16.17-8.41,31.13-18.7,44.53-31.05c8.03-7.4,15.3-15.63,23.06-23.34c3.02-3,4.25-6.23,3-10.35c-0.38-1.25-0.62-2.55-0.95-3.82
	c-2.27-8.86-4.14-17.85-6.92-26.55c-3.52-11-8.4-21.46-14.28-31.45c-5.91-10.02-12.54-19.51-20.58-27.91
	c-4.8-5.02-9.79-9.96-15.26-14.21c-7.24-5.63-15.03-10.55-22.6-15.75c-1.41-0.97-2.49-0.7-3.73,0.66
	c-9.64,10.6-21.08,18.82-34.1,24.75c-11.22,5.1-23.08,8.07-35.35,8.9c-11.08,0.75-22.12-0.12-32.93-2.91
	c-8.18-2.11-16.16-4.89-23.48-9.08c-5.61-3.21-11-6.88-16.11-10.84c-2.17-1.69-4.25-3.5-6.31-5.38c-2.51-2.29-5-4.67-7.62-7.03
	c-0.46,0.25-1.03,0.56-1.58,0.91c-11.15,6.44-21.58,13.89-30.88,22.82c-6.97,6.69-13.22,13.97-18.93,21.79
	c-7.88,10.78-14.2,22.4-19.29,34.68c-5.82,14.04-9.55,28.73-12.01,43.72c-0.07,0.44-0.1,0.95-0.06,1.46
	c0.07,0.84,0.3,1.68,0.74,2.19C43.58,317.94,48.5,323.63,53.8,328.93z"/>
<path class="st0" d="M126.72,39.91c-15.88,17.91-23.82,39.36-23.76,63.3c0.06,26.53,9.49,49.63,28.29,68.44
	c17.64,17.64,38.97,26.93,63.5,28.27c1.64,0.09,3.29,0.14,4.95,0.16c4.18,0.01,8.3-0.24,12.34-0.75c1.61-0.2,3.22-0.45,4.81-0.73
	c2.83-0.5,5.62-1.13,8.35-1.87c1.28-0.35,2.55-0.72,3.82-1.12c39.08-12.38,67.23-49.05,67.39-91.72
	c0.21-53.94-43.33-96.92-95.74-97.13C170.99,6.66,146.25,17.88,126.72,39.91z"/>
</svg>
